<svg width="13.500000" height="13.500000" viewBox="0 0 13.5 13.5" fill="none" xmlns="http://www.w3.org/2000/svg" xmlns:xlink="http://www.w3.org/1999/xlink">
	<desc>
			Created with Pixso.
	</desc>
	<defs/>
	<path id="Vector" d="M1.5 0C1.1 0 0.72 0.15 0.43 0.43C0.15 0.72 0 1.1 0 1.5L0 12C0 12.39 0.15 12.77 0.43 13.06C0.72 13.34 1.1 13.5 1.5 13.5L12 13.5C12.39 13.5 12.77 13.34 13.06 13.06C13.34 12.77 13.5 12.39 13.5 12L13.5 1.5C13.5 1.1 13.34 0.72 13.06 0.43C12.77 0.15 12.39 0 12 0L1.5 0ZM10.46 5.09C10.6 4.95 10.68 4.76 10.68 4.56C10.68 4.36 10.6 4.17 10.46 4.03C10.32 3.89 10.13 3.81 9.93 3.81C9.73 3.81 9.54 3.89 9.4 4.03L5.68 7.74L4.09 6.15C4.02 6.08 3.94 6.03 3.85 5.99C3.76 5.95 3.66 5.93 3.56 5.93C3.36 5.93 3.17 6.01 3.03 6.15C2.89 6.29 2.81 6.48 2.81 6.68C2.81 6.88 2.89 7.07 3.03 7.21L5.1 9.28C5.18 9.36 5.27 9.42 5.37 9.46C5.47 9.5 5.58 9.52 5.68 9.52C5.79 9.52 5.9 9.5 6 9.46C6.1 9.42 6.19 9.36 6.27 9.28L10.46 5.09Z" fill="#2965F1" fill-opacity="1.000000" fill-rule="evenodd"/>
</svg>
